<?xml version="1.0" encoding="us-ascii" standalone="no"?><svg xmlns="http://www.w3.org/2000/svg" xmlns:xlink="http://www.w3.org/1999/xlink" contentStyleType="text/css" height="285px" preserveAspectRatio="none" style="width:914px;height:285px;background:#FFFFFF;" version="1.1" viewBox="0 0 914 285" width="914px" zoomAndPan="magnify"><defs/><g><!--cluster Course Endpoints--><g id="cluster_Course Endpoints"><path d="M8.5,6 L136.5,6 A3.75,3.75 0 0 1 139,8.5 L146,28.4883 L904.5,28.4883 A2.5,2.5 0 0 1 907,30.9883 L907,276.45 A2.5,2.5 0 0 1 904.5,278.95 L8.5,278.95 A2.5,2.5 0 0 1 6,276.45 L6,8.5 A2.5,2.5 0 0 1 8.5,6 " fill="none" style="stroke:#000000;stroke-width:1.5;"/><line style="stroke:#000000;stroke-width:1.5;" x1="6" x2="146" y1="28.4883" y2="28.4883"/><text fill="#000000" font-family="sans-serif" font-size="14" font-weight="bold" lengthAdjust="spacing" textLength="127" x="10" y="21.5352">Course Endpoints</text></g><!--class /course/addCourse/{courseName}--><g id="elem_/course/addCourse/{courseName}"><rect codeLine="34" fill="#F1F1F1" height="48" id="/course/addCourse/{courseName}" rx="2.5" ry="2.5" style="stroke:#181818;stroke-width:0.5;" width="269" x="42.5" y="41"/><ellipse cx="57.5" cy="57" fill="#B4A7E5" rx="11" ry="11" style="stroke:#181818;stroke-width:1.0;"/><path d="M53.9277,53.2651 L53.9277,51.1069 L61.3071,51.1069 L61.3071,53.2651 L58.8418,53.2651 L58.8418,61.3418 L61.3071,61.3418 L61.3071,63.5 L53.9277,63.5 L53.9277,61.3418 L56.3931,61.3418 L56.3931,53.2651 Z " fill="#000000"/><text fill="#000000" font-family="sans-serif" font-size="14" font-style="italic" lengthAdjust="spacing" textLength="237" x="71.5" y="62.291">/course/addCourse/{courseName}</text><line style="stroke:#181818;stroke-width:0.5;" x1="43.5" x2="310.5" y1="73" y2="73"/><line style="stroke:#181818;stroke-width:0.5;" x1="43.5" x2="310.5" y1="81" y2="81"/></g><!--class POST /course/addCourse/{courseName}--><g id="elem_POST /course/addCourse/{courseName}"><rect codeLine="37" fill="#F1F1F1" height="113.9531" id="POST /course/addCourse/{courseName}" rx="2.5" ry="2.5" style="stroke:#181818;stroke-width:0.5;" width="309" x="22.5" y="149"/><ellipse cx="37.5" cy="165" fill="#ADD1B2" rx="11" ry="11" style="stroke:#181818;stroke-width:1.0;"/><path d="M39.9731,171.1431 Q39.3921,171.4419 38.7529,171.5913 Q38.1138,171.7407 37.4082,171.7407 Q34.9014,171.7407 33.5815,170.0889 Q32.2617,168.437 32.2617,165.3159 Q32.2617,162.1865 33.5815,160.5347 Q34.9014,158.8828 37.4082,158.8828 Q38.1138,158.8828 38.7612,159.0322 Q39.4087,159.1816 39.9731,159.4805 L39.9731,162.2031 Q39.3423,161.6221 38.7488,161.3523 Q38.1553,161.0825 37.5244,161.0825 Q36.1797,161.0825 35.4949,162.1492 Q34.8101,163.2158 34.8101,165.3159 Q34.8101,167.4077 35.4949,168.4744 Q36.1797,169.541 37.5244,169.541 Q38.1553,169.541 38.7488,169.2712 Q39.3423,169.0015 39.9731,168.4204 Z " fill="#000000"/><text fill="#000000" font-family="sans-serif" font-size="14" lengthAdjust="spacing" textLength="277" x="51.5" y="170.291">POST /course/addCourse/{courseName}</text><line style="stroke:#181818;stroke-width:0.5;" x1="23.5" x2="330.5" y1="181" y2="181"/><text fill="#000000" font-family="sans-serif" font-size="14" lengthAdjust="spacing" textLength="40" x="28.5" y="219.0234">string</text><text fill="#000000" font-family="sans-serif" font-size="14" font-weight="bold" lengthAdjust="spacing" textLength="88" x="72.5" y="219.0234">courseName</text><line style="stroke:#181818;stroke-width:1.0;stroke-dasharray:1.0,2.0;" x1="23.5" x2="161.5" y1="197.2441" y2="197.2441"/><text fill="#000000" font-family="sans-serif" font-size="14" lengthAdjust="spacing" textLength="31" x="161.5" y="202.0352">path</text><line style="stroke:#181818;stroke-width:1.0;stroke-dasharray:1.0,2.0;" x1="192.5" x2="330.5" y1="197.2441" y2="197.2441"/><text fill="#000000" font-family="sans-serif" font-size="14" lengthAdjust="spacing" textLength="31" x="28.5" y="256">201:</text><text fill="#000000" font-family="sans-serif" font-size="14" font-style="italic" lengthAdjust="spacing" textLength="88" x="63.5" y="256">not specified</text><line style="stroke:#181818;stroke-width:1.0;stroke-dasharray:1.0,2.0;" x1="23.5" x2="142" y1="234.2207" y2="234.2207"/><text fill="#000000" font-family="sans-serif" font-size="14" lengthAdjust="spacing" textLength="70" x="142" y="239.0117">responses</text><line style="stroke:#181818;stroke-width:1.0;stroke-dasharray:1.0,2.0;" x1="212" x2="330.5" y1="234.2207" y2="234.2207"/></g><!--class /course/getCourses--><g id="elem_/course/getCourses"><rect codeLine="47" fill="#F1F1F1" height="48" id="/course/getCourses" rx="2.5" ry="2.5" style="stroke:#181818;stroke-width:0.5;" width="170" x="382" y="41"/><ellipse cx="397" cy="57" fill="#B4A7E5" rx="11" ry="11" style="stroke:#181818;stroke-width:1.0;"/><path d="M393.4277,53.2651 L393.4277,51.1069 L400.8071,51.1069 L400.8071,53.2651 L398.3418,53.2651 L398.3418,61.3418 L400.8071,61.3418 L400.8071,63.5 L393.4277,63.5 L393.4277,61.3418 L395.8931,61.3418 L395.8931,53.2651 Z " fill="#000000"/><text fill="#000000" font-family="sans-serif" font-size="14" font-style="italic" lengthAdjust="spacing" textLength="138" x="411" y="62.291">/course/getCourses</text><line style="stroke:#181818;stroke-width:0.5;" x1="383" x2="551" y1="73" y2="73"/><line style="stroke:#181818;stroke-width:0.5;" x1="383" x2="551" y1="81" y2="81"/></g><!--class GET /course/getCourses--><g id="elem_GET /course/getCourses"><rect codeLine="50" fill="#F1F1F1" height="76.9766" id="GET /course/getCourses" rx="2.5" ry="2.5" style="stroke:#181818;stroke-width:0.5;" width="201" x="366.5" y="167.49"/><ellipse cx="381.5" cy="183.49" fill="#ADD1B2" rx="11" ry="11" style="stroke:#181818;stroke-width:1.0;"/><path d="M383.9731,189.6331 Q383.3921,189.9319 382.7529,190.0813 Q382.1138,190.2307 381.4082,190.2307 Q378.9014,190.2307 377.5815,188.5789 Q376.2617,186.927 376.2617,183.8059 Q376.2617,180.6765 377.5815,179.0247 Q378.9014,177.3728 381.4082,177.3728 Q382.1138,177.3728 382.7612,177.5222 Q383.4087,177.6716 383.9731,177.9705 L383.9731,180.6931 Q383.3423,180.1121 382.7488,179.8423 Q382.1553,179.5725 381.5244,179.5725 Q380.1797,179.5725 379.4949,180.6392 Q378.8101,181.7058 378.8101,183.8059 Q378.8101,185.8977 379.4949,186.9644 Q380.1797,188.031 381.5244,188.031 Q382.1553,188.031 382.7488,187.7612 Q383.3423,187.4915 383.9731,186.9104 Z " fill="#000000"/><text fill="#000000" font-family="sans-serif" font-size="14" lengthAdjust="spacing" textLength="169" x="395.5" y="188.781">GET /course/getCourses</text><line style="stroke:#181818;stroke-width:0.5;" x1="367.5" x2="566.5" y1="199.49" y2="199.49"/><text fill="#000000" font-family="sans-serif" font-size="14" lengthAdjust="spacing" textLength="31" x="372.5" y="237.5134">200:</text><text fill="#000000" font-family="sans-serif" font-size="14" font-style="italic" lengthAdjust="spacing" textLength="88" x="407.5" y="237.5134">not specified</text><line style="stroke:#181818;stroke-width:1.0;stroke-dasharray:1.0,2.0;" x1="367.5" x2="432" y1="215.7341" y2="215.7341"/><text fill="#000000" font-family="sans-serif" font-size="14" lengthAdjust="spacing" textLength="70" x="432" y="220.5252">responses</text><line style="stroke:#181818;stroke-width:1.0;stroke-dasharray:1.0,2.0;" x1="502" x2="566.5" y1="215.7341" y2="215.7341"/></g><!--class /course/{courseName}/solutions--><g id="elem_/course/{courseName}/solutions"><rect codeLine="58" fill="#F1F1F1" height="48" id="/course/{courseName}/solutions" rx="2.5" ry="2.5" style="stroke:#181818;stroke-width:0.5;" width="257" x="618.5" y="41"/><ellipse cx="633.5" cy="57" fill="#B4A7E5" rx="11" ry="11" style="stroke:#181818;stroke-width:1.0;"/><path d="M629.9277,53.2651 L629.9277,51.1069 L637.3071,51.1069 L637.3071,53.2651 L634.8418,53.2651 L634.8418,61.3418 L637.3071,61.3418 L637.3071,63.5 L629.9277,63.5 L629.9277,61.3418 L632.3931,61.3418 L632.3931,53.2651 Z " fill="#000000"/><text fill="#000000" font-family="sans-serif" font-size="14" font-style="italic" lengthAdjust="spacing" textLength="225" x="647.5" y="62.291">/course/{courseName}/solutions</text><line style="stroke:#181818;stroke-width:0.5;" x1="619.5" x2="874.5" y1="73" y2="73"/><line style="stroke:#181818;stroke-width:0.5;" x1="619.5" x2="874.5" y1="81" y2="81"/></g><!--class GET /course/{courseName}/solutions--><g id="elem_GET /course/{courseName}/solutions"><rect codeLine="61" fill="#F1F1F1" height="113.9531" id="GET /course/{courseName}/solutions" rx="2.5" ry="2.5" style="stroke:#181818;stroke-width:0.5;" width="288" x="603" y="149"/><ellipse cx="618" cy="165" fill="#ADD1B2" rx="11" ry="11" style="stroke:#181818;stroke-width:1.0;"/><path d="M620.4731,171.1431 Q619.8921,171.4419 619.2529,171.5913 Q618.6138,171.7407 617.9082,171.7407 Q615.4014,171.7407 614.0815,170.0889 Q612.7617,168.437 612.7617,165.3159 Q612.7617,162.1865 614.0815,160.5347 Q615.4014,158.8828 617.9082,158.8828 Q618.6138,158.8828 619.2612,159.0322 Q619.9087,159.1816 620.4731,159.4805 L620.4731,162.2031 Q619.8423,161.6221 619.2488,161.3523 Q618.6553,161.0825 618.0244,161.0825 Q616.6797,161.0825 615.9949,162.1492 Q615.3101,163.2158 615.3101,165.3159 Q615.3101,167.4077 615.9949,168.4744 Q616.6797,169.541 618.0244,169.541 Q618.6553,169.541 619.2488,169.2712 Q619.8423,169.0015 620.4731,168.4204 Z " fill="#000000"/><text fill="#000000" font-family="sans-serif" font-size="14" lengthAdjust="spacing" textLength="256" x="632" y="170.291">GET /course/{courseName}/solutions</text><line style="stroke:#181818;stroke-width:0.5;" x1="604" x2="890" y1="181" y2="181"/><text fill="#000000" font-family="sans-serif" font-size="14" lengthAdjust="spacing" textLength="40" x="609" y="219.0234">string</text><text fill="#000000" font-family="sans-serif" font-size="14" font-weight="bold" lengthAdjust="spacing" textLength="88" x="653" y="219.0234">courseName</text><line style="stroke:#181818;stroke-width:1.0;stroke-dasharray:1.0,2.0;" x1="604" x2="731.5" y1="197.2441" y2="197.2441"/><text fill="#000000" font-family="sans-serif" font-size="14" lengthAdjust="spacing" textLength="31" x="731.5" y="202.0352">path</text><line style="stroke:#181818;stroke-width:1.0;stroke-dasharray:1.0,2.0;" x1="762.5" x2="890" y1="197.2441" y2="197.2441"/><text fill="#000000" font-family="sans-serif" font-size="14" lengthAdjust="spacing" textLength="31" x="609" y="256">200:</text><text fill="#000000" font-family="sans-serif" font-size="14" font-style="italic" lengthAdjust="spacing" textLength="88" x="644" y="256">not specified</text><line style="stroke:#181818;stroke-width:1.0;stroke-dasharray:1.0,2.0;" x1="604" x2="712" y1="234.2207" y2="234.2207"/><text fill="#000000" font-family="sans-serif" font-size="14" lengthAdjust="spacing" textLength="70" x="712" y="239.0117">responses</text><line style="stroke:#181818;stroke-width:1.0;stroke-dasharray:1.0,2.0;" x1="782" x2="890" y1="234.2207" y2="234.2207"/></g><!--link /course/addCourse/{courseName} to POST /course/addCourse/{courseName}--><g id="link_/course/addCourse/{courseName}_POST /course/addCourse/{courseName}"><path codeLine="44" d="M177,89.26 C177,105.49 177,121.87 177,142.63 " fill="none" id="/course/addCourse/{courseName}-to-POST /course/addCourse/{courseName}" style="stroke:#181818;stroke-width:1.0;stroke-dasharray:7.0,7.0;"/><polygon fill="#181818" points="177,148.63,181,139.63,177,143.63,173,139.63,177,148.63" style="stroke:#181818;stroke-width:1.0;"/></g><!--link /course/getCourses to GET /course/getCourses--><g id="link_/course/getCourses_GET /course/getCourses"><path codeLine="55" d="M467,89.26 C467,110.51 467,136.31 467,161.2 " fill="none" id="/course/getCourses-to-GET /course/getCourses" style="stroke:#181818;stroke-width:1.0;stroke-dasharray:7.0,7.0;"/><polygon fill="#181818" points="467,167.2,471,158.2,467,162.2,463,158.2,467,167.2" style="stroke:#181818;stroke-width:1.0;"/></g><!--link /course/{courseName}/solutions to GET /course/{courseName}/solutions--><g id="link_/course/{courseName}/solutions_GET /course/{courseName}/solutions"><path codeLine="68" d="M747,89.26 C747,105.49 747,121.87 747,142.63 " fill="none" id="/course/{courseName}/solutions-to-GET /course/{courseName}/solutions" style="stroke:#181818;stroke-width:1.0;stroke-dasharray:7.0,7.0;"/><polygon fill="#181818" points="747,148.63,751,139.63,747,143.63,743,139.63,747,148.63" style="stroke:#181818;stroke-width:1.0;"/></g><!--SRC=[pLPTRvim57tthx3o0q8txMcAaB8eslgojKh-W1FVfjR0UDYqQX7_VUOheGCRJBnkUGY4d7kkxxdd6Zyo2XXYeLvm3F41KeaaACn935AG8-n0a9Ie9CKyuO2GVlQJd00lTYgZm1NUSYeInfLSu1nX_T7ta3xeKBm8P0qAycEIfHA-QzOY89GsmN8jD_Af3InGTJb6H4gykFknssCtWkKI2w8UzRNwcJymY6Y1fKePF-7L8RoGh893sCQakjA4Iv1juCUR3v_FqIiMyaHXAU38z2Ew2bZONUxa8fVBqAqgX8nwda2rs2ylcuga9Ik6vVowxUIT4ZvHp14XR-O8QLzUfUFqSf2cv_0ij6axxgrHTlFM36LVtd9MxRAPTbBWFpBhoDew9hKZ1ypP1EXkr07IuaGZreED1hWldkd_QQxapNZA9CeKq-iQhyeUvw_nSrGnhQsda04uF4xt6Nkr3zClZIYzL287KrI0lFo-fTRfciSqH_K-g2RrsHRNQZe3wXWwuFCAe4UXPBZFG5Oj_eEgfhcb8xsfh7CLd-iBvzswurxGPPZc4PXQrJHxrqpZUDCl9utcnc6s_6JvAtFN1vmJ-tnN-bJ3CBTNqfgCaWbA56mfK-GGmPv5qOG4kMBwqAz8B4mUMUyttx3V3E_aZtDYxxl3zKBKrl2fhMMhTsETiDVF8_olNySpgkhl-8uCm-UgTQOrifwhY4O4KN9YtBQlzr7pjVhajebsKtSsmSvZLFm6]--></g></svg>