<?xml version="1.0" encoding="us-ascii" standalone="no"?><svg xmlns="http://www.w3.org/2000/svg" xmlns:xlink="http://www.w3.org/1999/xlink" contentStyleType="text/css" height="318px" preserveAspectRatio="none" style="width:2739px;height:318px;background:#FFFFFF;" version="1.1" viewBox="0 0 2739 318" width="2739px" zoomAndPan="magnify"><defs/><g><!--cluster Quiz Endpoints--><g id="cluster_Quiz Endpoints"><path d="M8.5,6 L120.5,6 A3.75,3.75 0 0 1 123,8.5 L130,28.4883 L2729.5,28.4883 A2.5,2.5 0 0 1 2732,30.9883 L2732,309.43 A2.5,2.5 0 0 1 2729.5,311.93 L8.5,311.93 A2.5,2.5 0 0 1 6,309.43 L6,8.5 A2.5,2.5 0 0 1 8.5,6 " fill="none" style="stroke:#000000;stroke-width:1.5;"/><line style="stroke:#000000;stroke-width:1.5;" x1="6" x2="130" y1="28.4883" y2="28.4883"/><text fill="#000000" font-family="sans-serif" font-size="14" font-weight="bold" lengthAdjust="spacing" textLength="111" x="10" y="21.5352">Quiz Endpoints</text></g><!--class /quiz/addQuiz/course/{courseName}/quiz/{quizId}--><g id="elem_/quiz/addQuiz/course/{courseName}/quiz/{quizId}"><rect codeLine="74" fill="#F1F1F1" height="48" id="/quiz/addQuiz/course/{courseName}/quiz/{quizId}" rx="2.5" ry="2.5" style="stroke:#181818;stroke-width:0.5;" width="386" x="42" y="41"/><ellipse cx="57" cy="57" fill="#B4A7E5" rx="11" ry="11" style="stroke:#181818;stroke-width:1.0;"/><path d="M53.4277,53.2651 L53.4277,51.1069 L60.8071,51.1069 L60.8071,53.2651 L58.3418,53.2651 L58.3418,61.3418 L60.8071,61.3418 L60.8071,63.5 L53.4277,63.5 L53.4277,61.3418 L55.8931,61.3418 L55.8931,53.2651 Z " fill="#000000"/><text fill="#000000" font-family="sans-serif" font-size="14" font-style="italic" lengthAdjust="spacing" textLength="354" x="71" y="62.291">/quiz/addQuiz/course/{courseName}/quiz/{quizId}</text><line style="stroke:#181818;stroke-width:0.5;" x1="43" x2="427" y1="73" y2="73"/><line style="stroke:#181818;stroke-width:0.5;" x1="43" x2="427" y1="81" y2="81"/></g><!--class POST /quiz/addQuiz/course/{courseName}/quiz/{quizId}--><g id="elem_POST /quiz/addQuiz/course/{courseName}/quiz/{quizId}"><rect codeLine="77" fill="#F1F1F1" height="130.4414" id="POST /quiz/addQuiz/course/{courseName}/quiz/{quizId}" rx="2.5" ry="2.5" style="stroke:#181818;stroke-width:0.5;" width="426" x="22" y="157.24"/><ellipse cx="37" cy="173.24" fill="#ADD1B2" rx="11" ry="11" style="stroke:#181818;stroke-width:1.0;"/><path d="M39.4731,179.3831 Q38.8921,179.6819 38.2529,179.8313 Q37.6138,179.9807 36.9082,179.9807 Q34.4014,179.9807 33.0815,178.3289 Q31.7617,176.677 31.7617,173.5559 Q31.7617,170.4265 33.0815,168.7747 Q34.4014,167.1228 36.9082,167.1228 Q37.6138,167.1228 38.2612,167.2722 Q38.9087,167.4216 39.4731,167.7205 L39.4731,170.4431 Q38.8423,169.8621 38.2488,169.5923 Q37.6553,169.3225 37.0244,169.3225 Q35.6797,169.3225 34.9949,170.3892 Q34.3101,171.4558 34.3101,173.5559 Q34.3101,175.6477 34.9949,176.7144 Q35.6797,177.781 37.0244,177.781 Q37.6553,177.781 38.2488,177.5112 Q38.8423,177.2415 39.4731,176.6604 Z " fill="#000000"/><text fill="#000000" font-family="sans-serif" font-size="14" lengthAdjust="spacing" textLength="394" x="51" y="178.531">POST /quiz/addQuiz/course/{courseName}/quiz/{quizId}</text><line style="stroke:#181818;stroke-width:0.5;" x1="23" x2="447" y1="189.24" y2="189.24"/><text fill="#000000" font-family="sans-serif" font-size="14" lengthAdjust="spacing" textLength="40" x="28" y="227.2634">string</text><text fill="#000000" font-family="sans-serif" font-size="14" font-weight="bold" lengthAdjust="spacing" textLength="88" x="72" y="227.2634">courseName</text><text fill="#000000" font-family="sans-serif" font-size="14" lengthAdjust="spacing" textLength="40" x="28" y="243.7517">string</text><text fill="#000000" font-family="sans-serif" font-size="14" font-weight="bold" lengthAdjust="spacing" textLength="45" x="72" y="243.7517">quizId</text><line style="stroke:#181818;stroke-width:1.0;stroke-dasharray:1.0,2.0;" x1="23" x2="219.5" y1="205.4841" y2="205.4841"/><text fill="#000000" font-family="sans-serif" font-size="14" lengthAdjust="spacing" textLength="31" x="219.5" y="210.2752">path</text><line style="stroke:#181818;stroke-width:1.0;stroke-dasharray:1.0,2.0;" x1="250.5" x2="447" y1="205.4841" y2="205.4841"/><text fill="#000000" font-family="sans-serif" font-size="14" lengthAdjust="spacing" textLength="31" x="28" y="280.7283">200:</text><text fill="#000000" font-family="sans-serif" font-size="14" font-style="italic" lengthAdjust="spacing" textLength="88" x="63" y="280.7283">not specified</text><line style="stroke:#181818;stroke-width:1.0;stroke-dasharray:1.0,2.0;" x1="23" x2="200" y1="258.949" y2="258.949"/><text fill="#000000" font-family="sans-serif" font-size="14" lengthAdjust="spacing" textLength="70" x="200" y="263.74">responses</text><line style="stroke:#181818;stroke-width:1.0;stroke-dasharray:1.0,2.0;" x1="270" x2="447" y1="258.949" y2="258.949"/></g><!--class /quiz/getQuizQuestions/course/{course}/quizId/{quizId}--><g id="elem_/quiz/getQuizQuestions/course/{course}/quizId/{quizId}"><rect codeLine="88" fill="#F1F1F1" height="48" id="/quiz/getQuizQuestions/course/{course}/quizId/{quizId}" rx="2.5" ry="2.5" style="stroke:#181818;stroke-width:0.5;" width="425" x="498.5" y="41"/><ellipse cx="513.5" cy="57" fill="#B4A7E5" rx="11" ry="11" style="stroke:#181818;stroke-width:1.0;"/><path d="M509.9277,53.2651 L509.9277,51.1069 L517.3071,51.1069 L517.3071,53.2651 L514.8418,53.2651 L514.8418,61.3418 L517.3071,61.3418 L517.3071,63.5 L509.9277,63.5 L509.9277,61.3418 L512.3931,61.3418 L512.3931,53.2651 Z " fill="#000000"/><text fill="#000000" font-family="sans-serif" font-size="14" font-style="italic" lengthAdjust="spacing" textLength="393" x="527.5" y="62.291">/quiz/getQuizQuestions/course/{course}/quizId/{quizId}</text><line style="stroke:#181818;stroke-width:0.5;" x1="499.5" x2="922.5" y1="73" y2="73"/><line style="stroke:#181818;stroke-width:0.5;" x1="499.5" x2="922.5" y1="81" y2="81"/></g><!--class GET /quiz/getQuizQuestions/course/{course}/quizId/{quizId}--><g id="elem_GET /quiz/getQuizQuestions/course/{course}/quizId/{quizId}"><rect codeLine="91" fill="#F1F1F1" height="130.4414" id="GET /quiz/getQuizQuestions/course/{course}/quizId/{quizId}" rx="2.5" ry="2.5" style="stroke:#181818;stroke-width:0.5;" width="456" x="483" y="157.24"/><ellipse cx="498" cy="173.24" fill="#ADD1B2" rx="11" ry="11" style="stroke:#181818;stroke-width:1.0;"/><path d="M500.4731,179.3831 Q499.8921,179.6819 499.2529,179.8313 Q498.6138,179.9807 497.9082,179.9807 Q495.4014,179.9807 494.0815,178.3289 Q492.7617,176.677 492.7617,173.5559 Q492.7617,170.4265 494.0815,168.7747 Q495.4014,167.1228 497.9082,167.1228 Q498.6138,167.1228 499.2612,167.2722 Q499.9087,167.4216 500.4731,167.7205 L500.4731,170.4431 Q499.8423,169.8621 499.2488,169.5923 Q498.6553,169.3225 498.0244,169.3225 Q496.6797,169.3225 495.9949,170.3892 Q495.3101,171.4558 495.3101,173.5559 Q495.3101,175.6477 495.9949,176.7144 Q496.6797,177.781 498.0244,177.781 Q498.6553,177.781 499.2488,177.5112 Q499.8423,177.2415 500.4731,176.6604 Z " fill="#000000"/><text fill="#000000" font-family="sans-serif" font-size="14" lengthAdjust="spacing" textLength="424" x="512" y="178.531">GET /quiz/getQuizQuestions/course/{course}/quizId/{quizId}</text><line style="stroke:#181818;stroke-width:0.5;" x1="484" x2="938" y1="189.24" y2="189.24"/><text fill="#000000" font-family="sans-serif" font-size="14" lengthAdjust="spacing" textLength="40" x="489" y="227.2634">string</text><text fill="#000000" font-family="sans-serif" font-size="14" font-weight="bold" lengthAdjust="spacing" textLength="47" x="533" y="227.2634">course</text><text fill="#000000" font-family="sans-serif" font-size="14" lengthAdjust="spacing" textLength="40" x="489" y="243.7517">string</text><text fill="#000000" font-family="sans-serif" font-size="14" font-weight="bold" lengthAdjust="spacing" textLength="45" x="533" y="243.7517">quizId</text><line style="stroke:#181818;stroke-width:1.0;stroke-dasharray:1.0,2.0;" x1="484" x2="695.5" y1="205.4841" y2="205.4841"/><text fill="#000000" font-family="sans-serif" font-size="14" lengthAdjust="spacing" textLength="31" x="695.5" y="210.2752">path</text><line style="stroke:#181818;stroke-width:1.0;stroke-dasharray:1.0,2.0;" x1="726.5" x2="938" y1="205.4841" y2="205.4841"/><text fill="#000000" font-family="sans-serif" font-size="14" lengthAdjust="spacing" textLength="31" x="489" y="280.7283">200:</text><text fill="#000000" font-family="sans-serif" font-size="14" font-style="italic" lengthAdjust="spacing" textLength="88" x="524" y="280.7283">not specified</text><line style="stroke:#181818;stroke-width:1.0;stroke-dasharray:1.0,2.0;" x1="484" x2="676" y1="258.949" y2="258.949"/><text fill="#000000" font-family="sans-serif" font-size="14" lengthAdjust="spacing" textLength="70" x="676" y="263.74">responses</text><line style="stroke:#181818;stroke-width:1.0;stroke-dasharray:1.0,2.0;" x1="746" x2="938" y1="258.949" y2="258.949"/></g><!--class /quiz/addQuizSolution/course/{courseName}/quiz/{quizId}/student/{studentId}--><g id="elem_/quiz/addQuizSolution/course/{courseName}/quiz/{quizId}/student/{studentId}"><rect codeLine="102" fill="#F1F1F1" height="48" id="/quiz/addQuizSolution/course/{courseName}/quiz/{quizId}/student/{studentId}" rx="2.5" ry="2.5" style="stroke:#181818;stroke-width:0.5;" width="584" x="994" y="41"/><ellipse cx="1009" cy="57" fill="#B4A7E5" rx="11" ry="11" style="stroke:#181818;stroke-width:1.0;"/><path d="M1005.4277,53.2651 L1005.4277,51.1069 L1012.8071,51.1069 L1012.8071,53.2651 L1010.3418,53.2651 L1010.3418,61.3418 L1012.8071,61.3418 L1012.8071,63.5 L1005.4277,63.5 L1005.4277,61.3418 L1007.8931,61.3418 L1007.8931,53.2651 Z " fill="#000000"/><text fill="#000000" font-family="sans-serif" font-size="14" font-style="italic" lengthAdjust="spacing" textLength="552" x="1023" y="62.291">/quiz/addQuizSolution/course/{courseName}/quiz/{quizId}/student/{studentId}</text><line style="stroke:#181818;stroke-width:0.5;" x1="995" x2="1577" y1="73" y2="73"/><line style="stroke:#181818;stroke-width:0.5;" x1="995" x2="1577" y1="81" y2="81"/></g><!--class POST /quiz/addQuizSolution/course/{courseName}/quiz/{quizId}/student/{studentId}--><g id="elem_POST /quiz/addQuizSolution/course/{courseName}/quiz/{quizId}/student/{studentId}"><rect codeLine="105" fill="#F1F1F1" height="146.9297" id="POST /quiz/addQuizSolution/course/{courseName}/quiz/{quizId}/student/{studentId}" rx="2.5" ry="2.5" style="stroke:#181818;stroke-width:0.5;" width="624" x="974" y="149"/><ellipse cx="989" cy="165" fill="#ADD1B2" rx="11" ry="11" style="stroke:#181818;stroke-width:1.0;"/><path d="M991.4731,171.1431 Q990.8921,171.4419 990.2529,171.5913 Q989.6138,171.7407 988.9082,171.7407 Q986.4014,171.7407 985.0815,170.0889 Q983.7617,168.437 983.7617,165.3159 Q983.7617,162.1865 985.0815,160.5347 Q986.4014,158.8828 988.9082,158.8828 Q989.6138,158.8828 990.2612,159.0322 Q990.9087,159.1816 991.4731,159.4805 L991.4731,162.2031 Q990.8423,161.6221 990.2488,161.3523 Q989.6553,161.0825 989.0244,161.0825 Q987.6797,161.0825 986.9949,162.1492 Q986.3101,163.2158 986.3101,165.3159 Q986.3101,167.4077 986.9949,168.4744 Q987.6797,169.541 989.0244,169.541 Q989.6553,169.541 990.2488,169.2712 Q990.8423,169.0015 991.4731,168.4204 Z " fill="#000000"/><text fill="#000000" font-family="sans-serif" font-size="14" lengthAdjust="spacing" textLength="592" x="1003" y="170.291">POST /quiz/addQuizSolution/course/{courseName}/quiz/{quizId}/student/{studentId}</text><line style="stroke:#181818;stroke-width:0.5;" x1="975" x2="1597" y1="181" y2="181"/><text fill="#000000" font-family="sans-serif" font-size="14" lengthAdjust="spacing" textLength="40" x="980" y="219.0234">string</text><text fill="#000000" font-family="sans-serif" font-size="14" font-weight="bold" lengthAdjust="spacing" textLength="88" x="1024" y="219.0234">courseName</text><text fill="#000000" font-family="sans-serif" font-size="14" lengthAdjust="spacing" textLength="40" x="980" y="235.5117">string</text><text fill="#000000" font-family="sans-serif" font-size="14" font-weight="bold" lengthAdjust="spacing" textLength="45" x="1024" y="235.5117">quizId</text><text fill="#000000" font-family="sans-serif" font-size="14" lengthAdjust="spacing" textLength="40" x="980" y="252">string</text><text fill="#000000" font-family="sans-serif" font-size="14" font-weight="bold" lengthAdjust="spacing" textLength="69" x="1024" y="252">studentId</text><line style="stroke:#181818;stroke-width:1.0;stroke-dasharray:1.0,2.0;" x1="975" x2="1270.5" y1="197.2441" y2="197.2441"/><text fill="#000000" font-family="sans-serif" font-size="14" lengthAdjust="spacing" textLength="31" x="1270.5" y="202.0352">path</text><line style="stroke:#181818;stroke-width:1.0;stroke-dasharray:1.0,2.0;" x1="1301.5" x2="1597" y1="197.2441" y2="197.2441"/><text fill="#000000" font-family="sans-serif" font-size="14" lengthAdjust="spacing" textLength="31" x="980" y="288.9766">201:</text><text fill="#000000" font-family="sans-serif" font-size="14" font-style="italic" lengthAdjust="spacing" textLength="88" x="1015" y="288.9766">not specified</text><line style="stroke:#181818;stroke-width:1.0;stroke-dasharray:1.0,2.0;" x1="975" x2="1251" y1="267.1973" y2="267.1973"/><text fill="#000000" font-family="sans-serif" font-size="14" lengthAdjust="spacing" textLength="70" x="1251" y="271.9883">responses</text><line style="stroke:#181818;stroke-width:1.0;stroke-dasharray:1.0,2.0;" x1="1321" x2="1597" y1="267.1973" y2="267.1973"/></g><!--class /quiz/updateEditableTill/course/{courseName}/quiz/{quizId}/{timestamp}--><g id="elem_/quiz/updateEditableTill/course/{courseName}/quiz/{quizId}/{timestamp}"><rect codeLine="117" fill="#F1F1F1" height="48" id="/quiz/updateEditableTill/course/{courseName}/quiz/{quizId}/{timestamp}" rx="2.5" ry="2.5" style="stroke:#181818;stroke-width:0.5;" width="541" x="1658.5" y="41"/><ellipse cx="1673.5" cy="57" fill="#B4A7E5" rx="11" ry="11" style="stroke:#181818;stroke-width:1.0;"/><path d="M1669.9277,53.2651 L1669.9277,51.1069 L1677.3071,51.1069 L1677.3071,53.2651 L1674.8418,53.2651 L1674.8418,61.3418 L1677.3071,61.3418 L1677.3071,63.5 L1669.9277,63.5 L1669.9277,61.3418 L1672.3931,61.3418 L1672.3931,53.2651 Z " fill="#000000"/><text fill="#000000" font-family="sans-serif" font-size="14" font-style="italic" lengthAdjust="spacing" textLength="509" x="1687.5" y="62.291">/quiz/updateEditableTill/course/{courseName}/quiz/{quizId}/{timestamp}</text><line style="stroke:#181818;stroke-width:0.5;" x1="1659.5" x2="2198.5" y1="73" y2="73"/><line style="stroke:#181818;stroke-width:0.5;" x1="1659.5" x2="2198.5" y1="81" y2="81"/></g><!--class PATCH /quiz/updateEditableTill/course/{courseName}/quiz/{quizId}/{timestamp}--><g id="elem_PATCH /quiz/updateEditableTill/course/{courseName}/quiz/{quizId}/{timestamp}"><rect codeLine="120" fill="#F1F1F1" height="146.9297" id="PATCH /quiz/updateEditableTill/course/{courseName}/quiz/{quizId}/{timestamp}" rx="2.5" ry="2.5" style="stroke:#181818;stroke-width:0.5;" width="592" x="1633" y="149"/><ellipse cx="1648" cy="165" fill="#ADD1B2" rx="11" ry="11" style="stroke:#181818;stroke-width:1.0;"/><path d="M1650.4731,171.1431 Q1649.8921,171.4419 1649.2529,171.5913 Q1648.6138,171.7407 1647.9082,171.7407 Q1645.4014,171.7407 1644.0815,170.0889 Q1642.7617,168.437 1642.7617,165.3159 Q1642.7617,162.1865 1644.0815,160.5347 Q1645.4014,158.8828 1647.9082,158.8828 Q1648.6138,158.8828 1649.2612,159.0322 Q1649.9087,159.1816 1650.4731,159.4805 L1650.4731,162.2031 Q1649.8423,161.6221 1649.2488,161.3523 Q1648.6553,161.0825 1648.0244,161.0825 Q1646.6797,161.0825 1645.9949,162.1492 Q1645.3101,163.2158 1645.3101,165.3159 Q1645.3101,167.4077 1645.9949,168.4744 Q1646.6797,169.541 1648.0244,169.541 Q1648.6553,169.541 1649.2488,169.2712 Q1649.8423,169.0015 1650.4731,168.4204 Z " fill="#000000"/><text fill="#000000" font-family="sans-serif" font-size="14" lengthAdjust="spacing" textLength="560" x="1662" y="170.291">PATCH /quiz/updateEditableTill/course/{courseName}/quiz/{quizId}/{timestamp}</text><line style="stroke:#181818;stroke-width:0.5;" x1="1634" x2="2224" y1="181" y2="181"/><text fill="#000000" font-family="sans-serif" font-size="14" lengthAdjust="spacing" textLength="40" x="1639" y="219.0234">string</text><text fill="#000000" font-family="sans-serif" font-size="14" font-weight="bold" lengthAdjust="spacing" textLength="88" x="1683" y="219.0234">courseName</text><text fill="#000000" font-family="sans-serif" font-size="14" lengthAdjust="spacing" textLength="40" x="1639" y="235.5117">string</text><text fill="#000000" font-family="sans-serif" font-size="14" font-weight="bold" lengthAdjust="spacing" textLength="45" x="1683" y="235.5117">quizId</text><text fill="#000000" font-family="sans-serif" font-size="14" lengthAdjust="spacing" textLength="40" x="1639" y="252">string</text><text fill="#000000" font-family="sans-serif" font-size="14" font-weight="bold" lengthAdjust="spacing" textLength="78" x="1683" y="252">timestamp</text><line style="stroke:#181818;stroke-width:1.0;stroke-dasharray:1.0,2.0;" x1="1634" x2="1913.5" y1="197.2441" y2="197.2441"/><text fill="#000000" font-family="sans-serif" font-size="14" lengthAdjust="spacing" textLength="31" x="1913.5" y="202.0352">path</text><line style="stroke:#181818;stroke-width:1.0;stroke-dasharray:1.0,2.0;" x1="1944.5" x2="2224" y1="197.2441" y2="197.2441"/><text fill="#000000" font-family="sans-serif" font-size="14" lengthAdjust="spacing" textLength="31" x="1639" y="288.9766">200:</text><text fill="#000000" font-family="sans-serif" font-size="14" font-style="italic" lengthAdjust="spacing" textLength="88" x="1674" y="288.9766">not specified</text><line style="stroke:#181818;stroke-width:1.0;stroke-dasharray:1.0,2.0;" x1="1634" x2="1894" y1="267.1973" y2="267.1973"/><text fill="#000000" font-family="sans-serif" font-size="14" lengthAdjust="spacing" textLength="70" x="1894" y="271.9883">responses</text><line style="stroke:#181818;stroke-width:1.0;stroke-dasharray:1.0,2.0;" x1="1964" x2="2224" y1="267.1973" y2="267.1973"/></g><!--class /quiz/getEditableTill/course/{courseName}/quiz/{quizId}--><g id="elem_/quiz/getEditableTill/course/{courseName}/quiz/{quizId}"><rect codeLine="132" fill="#F1F1F1" height="48" id="/quiz/getEditableTill/course/{courseName}/quiz/{quizId}" rx="2.5" ry="2.5" style="stroke:#181818;stroke-width:0.5;" width="426" x="2275" y="41"/><ellipse cx="2290" cy="57" fill="#B4A7E5" rx="11" ry="11" style="stroke:#181818;stroke-width:1.0;"/><path d="M2286.4277,53.2651 L2286.4277,51.1069 L2293.8071,51.1069 L2293.8071,53.2651 L2291.3418,53.2651 L2291.3418,61.3418 L2293.8071,61.3418 L2293.8071,63.5 L2286.4277,63.5 L2286.4277,61.3418 L2288.8931,61.3418 L2288.8931,53.2651 Z " fill="#000000"/><text fill="#000000" font-family="sans-serif" font-size="14" font-style="italic" lengthAdjust="spacing" textLength="394" x="2304" y="62.291">/quiz/getEditableTill/course/{courseName}/quiz/{quizId}</text><line style="stroke:#181818;stroke-width:0.5;" x1="2276" x2="2700" y1="73" y2="73"/><line style="stroke:#181818;stroke-width:0.5;" x1="2276" x2="2700" y1="81" y2="81"/></g><!--class GET /quiz/getEditableTill/course/{courseName}/quiz/{quizId}--><g id="elem_GET /quiz/getEditableTill/course/{courseName}/quiz/{quizId}"><rect codeLine="135" fill="#F1F1F1" height="130.4414" id="GET /quiz/getEditableTill/course/{courseName}/quiz/{quizId}" rx="2.5" ry="2.5" style="stroke:#181818;stroke-width:0.5;" width="457" x="2259.5" y="157.24"/><ellipse cx="2274.5" cy="173.24" fill="#ADD1B2" rx="11" ry="11" style="stroke:#181818;stroke-width:1.0;"/><path d="M2276.9731,179.3831 Q2276.3921,179.6819 2275.7529,179.8313 Q2275.1138,179.9807 2274.4082,179.9807 Q2271.9014,179.9807 2270.5815,178.3289 Q2269.2617,176.677 2269.2617,173.5559 Q2269.2617,170.4265 2270.5815,168.7747 Q2271.9014,167.1228 2274.4082,167.1228 Q2275.1138,167.1228 2275.7612,167.2722 Q2276.4087,167.4216 2276.9731,167.7205 L2276.9731,170.4431 Q2276.3423,169.8621 2275.7488,169.5923 Q2275.1553,169.3225 2274.5244,169.3225 Q2273.1797,169.3225 2272.4949,170.3892 Q2271.8101,171.4558 2271.8101,173.5559 Q2271.8101,175.6477 2272.4949,176.7144 Q2273.1797,177.781 2274.5244,177.781 Q2275.1553,177.781 2275.7488,177.5112 Q2276.3423,177.2415 2276.9731,176.6604 Z " fill="#000000"/><text fill="#000000" font-family="sans-serif" font-size="14" lengthAdjust="spacing" textLength="425" x="2288.5" y="178.531">GET /quiz/getEditableTill/course/{courseName}/quiz/{quizId}</text><line style="stroke:#181818;stroke-width:0.5;" x1="2260.5" x2="2715.5" y1="189.24" y2="189.24"/><text fill="#000000" font-family="sans-serif" font-size="14" lengthAdjust="spacing" textLength="40" x="2265.5" y="227.2634">string</text><text fill="#000000" font-family="sans-serif" font-size="14" font-weight="bold" lengthAdjust="spacing" textLength="88" x="2309.5" y="227.2634">courseName</text><text fill="#000000" font-family="sans-serif" font-size="14" lengthAdjust="spacing" textLength="40" x="2265.5" y="243.7517">string</text><text fill="#000000" font-family="sans-serif" font-size="14" font-weight="bold" lengthAdjust="spacing" textLength="45" x="2309.5" y="243.7517">quizId</text><line style="stroke:#181818;stroke-width:1.0;stroke-dasharray:1.0,2.0;" x1="2260.5" x2="2472.5" y1="205.4841" y2="205.4841"/><text fill="#000000" font-family="sans-serif" font-size="14" lengthAdjust="spacing" textLength="31" x="2472.5" y="210.2752">path</text><line style="stroke:#181818;stroke-width:1.0;stroke-dasharray:1.0,2.0;" x1="2503.5" x2="2715.5" y1="205.4841" y2="205.4841"/><text fill="#000000" font-family="sans-serif" font-size="14" lengthAdjust="spacing" textLength="31" x="2265.5" y="280.7283">200:</text><text fill="#000000" font-family="sans-serif" font-size="14" font-style="italic" lengthAdjust="spacing" textLength="88" x="2300.5" y="280.7283">not specified</text><line style="stroke:#181818;stroke-width:1.0;stroke-dasharray:1.0,2.0;" x1="2260.5" x2="2453" y1="258.949" y2="258.949"/><text fill="#000000" font-family="sans-serif" font-size="14" lengthAdjust="spacing" textLength="70" x="2453" y="263.74">responses</text><line style="stroke:#181818;stroke-width:1.0;stroke-dasharray:1.0,2.0;" x1="2523" x2="2715.5" y1="258.949" y2="258.949"/></g><!--link /quiz/addQuiz/course/{courseName}/quiz/{quizId} to POST /quiz/addQuiz/course/{courseName}/quiz/{quizId}--><g id="link_/quiz/addQuiz/course/{courseName}/quiz/{quizId}_POST /quiz/addQuiz/course/{courseName}/quiz/{quizId}"><path codeLine="85" d="M235,89.27 C235,107.23 235,126.98 235,150.99 " fill="none" id="/quiz/addQuiz/course/{courseName}/quiz/{quizId}-to-POST /quiz/addQuiz/course/{courseName}/quiz/{quizId}" style="stroke:#181818;stroke-width:1.0;stroke-dasharray:7.0,7.0;"/><polygon fill="#181818" points="235,156.99,239,147.99,235,151.99,231,147.99,235,156.99" style="stroke:#181818;stroke-width:1.0;"/></g><!--link /quiz/getQuizQuestions/course/{course}/quizId/{quizId} to GET /quiz/getQuizQuestions/course/{course}/quizId/{quizId}--><g id="link_/quiz/getQuizQuestions/course/{course}/quizId/{quizId}_GET /quiz/getQuizQuestions/course/{course}/quizId/{quizId}"><path codeLine="99" d="M711,89.27 C711,107.23 711,126.98 711,150.99 " fill="none" id="/quiz/getQuizQuestions/course/{course}/quizId/{quizId}-to-GET /quiz/getQuizQuestions/course/{course}/quizId/{quizId}" style="stroke:#181818;stroke-width:1.0;stroke-dasharray:7.0,7.0;"/><polygon fill="#181818" points="711,156.99,715,147.99,711,151.99,707,147.99,711,156.99" style="stroke:#181818;stroke-width:1.0;"/></g><!--link /quiz/addQuizSolution/course/{courseName}/quiz/{quizId}/student/{studentId} to POST /quiz/addQuizSolution/course/{courseName}/quiz/{quizId}/student/{studentId}--><g id="link_/quiz/addQuizSolution/course/{courseName}/quiz/{quizId}/student/{studentId}_POST /quiz/addQuizSolution/course/{courseName}/quiz/{quizId}/student/{studentId}"><path codeLine="114" d="M1286,89.27 C1286,105.2 1286,121.25 1286,142.79 " fill="none" id="/quiz/addQuizSolution/course/{courseName}/quiz/{quizId}/student/{studentId}-to-POST /quiz/addQuizSolution/course/{courseName}/quiz/{quizId}/student/{studentId}" style="stroke:#181818;stroke-width:1.0;stroke-dasharray:7.0,7.0;"/><polygon fill="#181818" points="1286,148.79,1290,139.79,1286,143.79,1282,139.79,1286,148.79" style="stroke:#181818;stroke-width:1.0;"/></g><!--link /quiz/updateEditableTill/course/{courseName}/quiz/{quizId}/{timestamp} to PATCH /quiz/updateEditableTill/course/{courseName}/quiz/{quizId}/{timestamp}--><g id="link_/quiz/updateEditableTill/course/{courseName}/quiz/{quizId}/{timestamp}_PATCH /quiz/updateEditableTill/course/{courseName}/quiz/{quizId}/{timestamp}"><path codeLine="129" d="M1929,89.27 C1929,105.2 1929,121.25 1929,142.79 " fill="none" id="/quiz/updateEditableTill/course/{courseName}/quiz/{quizId}/{timestamp}-to-PATCH /quiz/updateEditableTill/course/{courseName}/quiz/{quizId}/{timestamp}" style="stroke:#181818;stroke-width:1.0;stroke-dasharray:7.0,7.0;"/><polygon fill="#181818" points="1929,148.79,1933,139.79,1929,143.79,1925,139.79,1929,148.79" style="stroke:#181818;stroke-width:1.0;"/></g><!--link /quiz/getEditableTill/course/{courseName}/quiz/{quizId} to GET /quiz/getEditableTill/course/{courseName}/quiz/{quizId}--><g id="link_/quiz/getEditableTill/course/{courseName}/quiz/{quizId}_GET /quiz/getEditableTill/course/{courseName}/quiz/{quizId}"><path codeLine="143" d="M2488,89.27 C2488,107.23 2488,126.98 2488,150.99 " fill="none" id="/quiz/getEditableTill/course/{courseName}/quiz/{quizId}-to-GET /quiz/getEditableTill/course/{courseName}/quiz/{quizId}" style="stroke:#181818;stroke-width:1.0;stroke-dasharray:7.0,7.0;"/><polygon fill="#181818" points="2488,156.99,2492,147.99,2488,151.99,2484,147.99,2488,156.99" style="stroke:#181818;stroke-width:1.0;"/></g><!--SRC=[pLPTRvim57tthx3o0q8txMcAaB8eslgojKh-W1FVfjR0UDYqQX7_VUOheGCRJBnkUGY4d7kkxxdd6Zyo2XXYeLvm3F41KeaaACn935AG8-n0a9Ie9CKyuO2GVlQJd00lTYgZm1NUSYeInfLSu1nX_T7ta3xeKBm8P0qAycEIfHA-QzOY89GsmN8jD_Af3InGTJb6H4gykFknssCtWkKI2w8UzRNwcJymY6Y1fKePF-7L8RoGh893sCQakjA4Iv1juCUR3v_FqIiMyaHXAU38z2Ew2bZONUxa8fVBqAqgX8nwda2rs2ylcuga9Ik6vVowxUIT4ZvHp14XR-O8QLzUfUFqSf2cv_0ij6axxgrHTlFM36LVtd9MxRAPTbBWFpBhoDew9hKZ1ypP1EXkr07IuaGZreED1hWldkd_QQxapNZA9CeKq-iQhyeUvw_nSrGnhQsda04uF4xt6Nkr3zClZIYzL287KrI0lFo-fTRfciSqH_K-g2RrsHRNQZe3wXWwuFCAe4UXPBZFG5Oj_eEgfhcb8xsfh7CLd-iBvzswurxGPPZc4PXQrJHxrqpZUDCl9utcnc6s_6JvAtFN1vmJ-tnN-bJ3CBTNqfgCaWbA56mfK-GGmPv5qOG4kMBwqAz8B4mUMUyttx3V3E_aZtDYxxl3zKBKrl2fhMMhTsETiDVF8_olNySpgkhl-8uCm-UgTQOrifwhY4O4KN9YtBQlzr7pjVhajebsKtSsmSvZLFm6]--></g></svg>