<?xml version="1.0" encoding="us-ascii" standalone="no"?><svg xmlns="http://www.w3.org/2000/svg" xmlns:xlink="http://www.w3.org/1999/xlink" contentStyleType="text/css" height="269px" preserveAspectRatio="none" style="width:784px;height:269px;background:#FFFFFF;" version="1.1" viewBox="0 0 784 269" width="784px" zoomAndPan="magnify"><defs/><g><!--cluster Student Endpoints--><g id="cluster_Student Endpoints"><path d="M8.5,6 L141.5,6 A3.75,3.75 0 0 1 144,8.5 L151,28.4883 L774.5,28.4883 A2.5,2.5 0 0 1 777,30.9883 L777,260.45 A2.5,2.5 0 0 1 774.5,262.95 L8.5,262.95 A2.5,2.5 0 0 1 6,260.45 L6,8.5 A2.5,2.5 0 0 1 8.5,6 " fill="none" style="stroke:#000000;stroke-width:1.5;"/><line style="stroke:#000000;stroke-width:1.5;" x1="6" x2="151" y1="28.4883" y2="28.4883"/><text fill="#000000" font-family="sans-serif" font-size="14" font-weight="bold" lengthAdjust="spacing" textLength="132" x="10" y="21.5352">Student Endpoints</text></g><!--class /student/{courseName}/addStudentsAsCsv--><g id="elem_/student/{courseName}/addStudentsAsCsv"><rect codeLine="5" fill="#F1F1F1" height="32" id="/student/{courseName}/addStudentsAsCsv" rx="2.5" ry="2.5" style="stroke:#181818;stroke-width:0.5;" width="327" x="41.5" y="41"/><ellipse cx="56.5" cy="57" fill="#B4A7E5" rx="11" ry="11" style="stroke:#181818;stroke-width:1.0;"/><path d="M52.9277,53.2651 L52.9277,51.1069 L60.3071,51.1069 L60.3071,53.2651 L57.8418,53.2651 L57.8418,61.3418 L60.3071,61.3418 L60.3071,63.5 L52.9277,63.5 L52.9277,61.3418 L55.3931,61.3418 L55.3931,53.2651 Z " fill="#000000"/><text fill="#000000" font-family="sans-serif" font-size="14" font-style="italic" lengthAdjust="spacing" textLength="295" x="70.5" y="62.291">/student/{courseName}/addStudentsAsCsv</text></g><!--class POST /student/{courseName}/addStudentsAsCsv--><g id="elem_POST /student/{courseName}/addStudentsAsCsv"><rect codeLine="8" fill="#F1F1F1" height="113.9531" id="POST /student/{courseName}/addStudentsAsCsv" rx="2.5" ry="2.5" style="stroke:#181818;stroke-width:0.5;" width="367" x="21.5" y="133"/><ellipse cx="36.5" cy="149" fill="#ADD1B2" rx="11" ry="11" style="stroke:#181818;stroke-width:1.0;"/><path d="M38.9731,155.1431 Q38.3921,155.4419 37.7529,155.5913 Q37.1138,155.7407 36.4082,155.7407 Q33.9014,155.7407 32.5815,154.0889 Q31.2617,152.437 31.2617,149.3159 Q31.2617,146.1865 32.5815,144.5347 Q33.9014,142.8828 36.4082,142.8828 Q37.1138,142.8828 37.7612,143.0322 Q38.4087,143.1816 38.9731,143.4805 L38.9731,146.2031 Q38.3423,145.6221 37.7488,145.3523 Q37.1553,145.0825 36.5244,145.0825 Q35.1797,145.0825 34.4949,146.1492 Q33.8101,147.2158 33.8101,149.3159 Q33.8101,151.4077 34.4949,152.4744 Q35.1797,153.541 36.5244,153.541 Q37.1553,153.541 37.7488,153.2712 Q38.3423,153.0015 38.9731,152.4204 Z " fill="#000000"/><text fill="#000000" font-family="sans-serif" font-size="14" lengthAdjust="spacing" textLength="335" x="50.5" y="154.291">POST /student/{courseName}/addStudentsAsCsv</text><line style="stroke:#181818;stroke-width:0.5;" x1="22.5" x2="387.5" y1="165" y2="165"/><text fill="#000000" font-family="sans-serif" font-size="14" lengthAdjust="spacing" textLength="40" x="27.5" y="203.0234">string</text><text fill="#000000" font-family="sans-serif" font-size="14" font-weight="bold" lengthAdjust="spacing" textLength="88" x="71.5" y="203.0234">courseName</text><line style="stroke:#181818;stroke-width:1.0;stroke-dasharray:1.0,2.0;" x1="22.5" x2="189.5" y1="181.2441" y2="181.2441"/><text fill="#000000" font-family="sans-serif" font-size="14" lengthAdjust="spacing" textLength="31" x="189.5" y="186.0352">path</text><line style="stroke:#181818;stroke-width:1.0;stroke-dasharray:1.0,2.0;" x1="220.5" x2="387.5" y1="181.2441" y2="181.2441"/><text fill="#000000" font-family="sans-serif" font-size="14" lengthAdjust="spacing" textLength="31" x="27.5" y="240">201:</text><text fill="#000000" font-family="sans-serif" font-size="14" font-style="italic" lengthAdjust="spacing" textLength="88" x="62.5" y="240">not specified</text><line style="stroke:#181818;stroke-width:1.0;stroke-dasharray:1.0,2.0;" x1="22.5" x2="170" y1="218.2207" y2="218.2207"/><text fill="#000000" font-family="sans-serif" font-size="14" lengthAdjust="spacing" textLength="70" x="170" y="223.0117">responses</text><line style="stroke:#181818;stroke-width:1.0;stroke-dasharray:1.0,2.0;" x1="240" x2="387.5" y1="218.2207" y2="218.2207"/></g><!--class /student/getStudentsByCourse/{course}--><g id="elem_/student/getStudentsByCourse/{course}"><rect codeLine="18" fill="#F1F1F1" height="32" id="/student/getStudentsByCourse/{course}" rx="2.5" ry="2.5" style="stroke:#181818;stroke-width:0.5;" width="307" x="438.5" y="41"/><ellipse cx="453.5" cy="57" fill="#B4A7E5" rx="11" ry="11" style="stroke:#181818;stroke-width:1.0;"/><path d="M449.9277,53.2651 L449.9277,51.1069 L457.3071,51.1069 L457.3071,53.2651 L454.8418,53.2651 L454.8418,61.3418 L457.3071,61.3418 L457.3071,63.5 L449.9277,63.5 L449.9277,61.3418 L452.3931,61.3418 L452.3931,53.2651 Z " fill="#000000"/><text fill="#000000" font-family="sans-serif" font-size="14" font-style="italic" lengthAdjust="spacing" textLength="275" x="467.5" y="62.291">/student/getStudentsByCourse/{course}</text></g><!--class GET /student/getStudentsByCourse/{course}--><g id="elem_GET /student/getStudentsByCourse/{course}"><rect codeLine="21" fill="#F1F1F1" height="113.9531" id="GET /student/getStudentsByCourse/{course}" rx="2.5" ry="2.5" style="stroke:#181818;stroke-width:0.5;" width="338" x="423" y="133"/><ellipse cx="438" cy="149" fill="#ADD1B2" rx="11" ry="11" style="stroke:#181818;stroke-width:1.0;"/><path d="M440.4731,155.1431 Q439.8921,155.4419 439.2529,155.5913 Q438.6138,155.7407 437.9082,155.7407 Q435.4014,155.7407 434.0815,154.0889 Q432.7617,152.437 432.7617,149.3159 Q432.7617,146.1865 434.0815,144.5347 Q435.4014,142.8828 437.9082,142.8828 Q438.6138,142.8828 439.2612,143.0322 Q439.9087,143.1816 440.4731,143.4805 L440.4731,146.2031 Q439.8423,145.6221 439.2488,145.3523 Q438.6553,145.0825 438.0244,145.0825 Q436.6797,145.0825 435.9949,146.1492 Q435.3101,147.2158 435.3101,149.3159 Q435.3101,151.4077 435.9949,152.4744 Q436.6797,153.541 438.0244,153.541 Q438.6553,153.541 439.2488,153.2712 Q439.8423,153.0015 440.4731,152.4204 Z " fill="#000000"/><text fill="#000000" font-family="sans-serif" font-size="14" lengthAdjust="spacing" textLength="306" x="452" y="154.291">GET /student/getStudentsByCourse/{course}</text><line style="stroke:#181818;stroke-width:0.5;" x1="424" x2="760" y1="165" y2="165"/><text fill="#000000" font-family="sans-serif" font-size="14" lengthAdjust="spacing" textLength="40" x="429" y="203.0234">string</text><text fill="#000000" font-family="sans-serif" font-size="14" font-weight="bold" lengthAdjust="spacing" textLength="47" x="473" y="203.0234">course</text><line style="stroke:#181818;stroke-width:1.0;stroke-dasharray:1.0,2.0;" x1="424" x2="576.5" y1="181.2441" y2="181.2441"/><text fill="#000000" font-family="sans-serif" font-size="14" lengthAdjust="spacing" textLength="31" x="576.5" y="186.0352">path</text><line style="stroke:#181818;stroke-width:1.0;stroke-dasharray:1.0,2.0;" x1="607.5" x2="760" y1="181.2441" y2="181.2441"/><text fill="#000000" font-family="sans-serif" font-size="14" lengthAdjust="spacing" textLength="31" x="429" y="240">200:</text><text fill="#000000" font-family="sans-serif" font-size="14" font-style="italic" lengthAdjust="spacing" textLength="88" x="464" y="240">not specified</text><line style="stroke:#181818;stroke-width:1.0;stroke-dasharray:1.0,2.0;" x1="424" x2="557" y1="218.2207" y2="218.2207"/><text fill="#000000" font-family="sans-serif" font-size="14" lengthAdjust="spacing" textLength="70" x="557" y="223.0117">responses</text><line style="stroke:#181818;stroke-width:1.0;stroke-dasharray:1.0,2.0;" x1="627" x2="760" y1="218.2207" y2="218.2207"/></g><!--link /student/{courseName}/addStudentsAsCsv to POST /student/{courseName}/addStudentsAsCsv--><g id="link_/student/{courseName}/addStudentsAsCsv_POST /student/{courseName}/addStudentsAsCsv"><path codeLine="15" d="M205,73.28 C205,87.92 205,104.93 205,126.59 " fill="none" id="/student/{courseName}/addStudentsAsCsv-to-POST /student/{courseName}/addStudentsAsCsv" style="stroke:#181818;stroke-width:1.0;stroke-dasharray:7.0,7.0;"/><polygon fill="#181818" points="205,132.59,209,123.59,205,127.59,201,123.59,205,132.59" style="stroke:#181818;stroke-width:1.0;"/></g><!--link /student/getStudentsByCourse/{course} to GET /student/getStudentsByCourse/{course}--><g id="link_/student/getStudentsByCourse/{course}_GET /student/getStudentsByCourse/{course}"><path codeLine="28" d="M592,73.28 C592,87.92 592,104.93 592,126.59 " fill="none" id="/student/getStudentsByCourse/{course}-to-GET /student/getStudentsByCourse/{course}" style="stroke:#181818;stroke-width:1.0;stroke-dasharray:7.0,7.0;"/><polygon fill="#181818" points="592,132.59,596,123.59,592,127.59,588,123.59,592,132.59" style="stroke:#181818;stroke-width:1.0;"/></g><!--SRC=[pLPTRvim57tthx3o0q8txMcAaB8eslgojKh-W1FVfjR0UDYqQX7_VUOheGCRJBnkUGY4d7kkxxdd6Zyo2XXYeLvm3F41KeaaACn935AG8-n0a9Ie9CKyuO2GVlQJd00lTYgZm1NUSYeInfLSu1nX_T7ta3xeKBm8P0qAycEIfHA-QzOY89GsmN8jD_Af3InGTJb6H4gykFknssCtWkKI2w8UzRNwcJymY6Y1fKePF-7L8RoGh893sCQakjA4Iv1juCUR3v_FqIiMyaHXAU38z2Ew2bZONUxa8fVBqAqgX8nwda2rs2ylcuga9Ik6vVowxUIT4ZvHp14XR-O8QLzUfUFqSf2cv_0ij6axxgrHTlFM36LVtd9MxRAPTbBWFpBhoDew9hKZ1ypP1EXkr07IuaGZreED1hWldkd_QQxapNZA9CeKq-iQhyeUvw_nSrGnhQsda04uF4xt6Nkr3zClZIYzL287KrI0lFo-fTRfciSqH_K-g2RrsHRNQZe3wXWwuFCAe4UXPBZFG5Oj_eEgfhcb8xsfh7CLd-iBvzswurxGPPZc4PXQrJHxrqpZUDCl9utcnc6s_6JvAtFN1vmJ-tnN-bJ3CBTNqfgCaWbA56mfK-GGmPv5qOG4kMBwqAz8B4mUMUyttx3V3E_aZtDYxxl3zKBKrl2fhMMhTsETiDVF8_olNySpgkhl-8uCm-UgTQOrifwhY4O4KN9YtBQlzr7pjVhajebsKtSsmSvZLFm6]--></g></svg>